<svg xmlns="http://www.w3.org/2000/svg" width="160" height="160" fill="none"><g clip-path="url(#a)"><g clip-path="url(#b)"><path fill="#E69A7C" d="M68.685 117.721c-1.1-2.871-.576-2.876-1.035-5.496h10.88l3.553 20.448-25.299 8.764-6.337-6.154c6.42-5.013 16.537-14.964 18.238-17.562"/><path fill="#C67458" d="m55.404 141.621 24.981-19.103 2.205 10.102z"/><path fill="#E69A7C" d="M119.44 72.929c-7.278-4.773-21.012-.955-23.923 1.058l-2.494 2.542-.62 15.18 13.101 15.387 9.885-12.73c1.354-6.257 3.747-17.619 4.051-21.437"/><path fill="#FC790D" d="M85.324 74.842c4.683.207 5.72-1.702 10.19-.851 2.843 5.48 3.258 10.578 3.608 13.933 4.838-5.36 5.42-3.726 8.014-7.945 9.152-5.302 8.137-5.563 9.491-8.323 10.089 2.335 20.595 10.293 24.341 14.111 2.81 5.98 6.41 15.514 7.324 27.739a79 79 0 0 1-1.354 21.666c-5.834-3.841-11.68-7.682-17.514-11.511l-1.557 28.555c-11.443 7.958-41.076 0-45.342-.633-2.596-5.842.733-7.532.417-12.949-1.354-6.153-3.631-17.767-4.67-24.782-.733-5.198-.216-5.257-.633-10.029 1.771 9.683 6.026 8.838 1.027 12.552H66.869c0-23.064 3.736-30.896 6.026-33.127 2.291-2.231 7.777-7.014 12.44-8.395z"/><path fill="#fff" fill-rule="evenodd" d="M105.721 96.724a.66.66 0 0 1 .228-.447.6.6 0 0 1 .46-.16.57.57 0 0 1 .422.221.62.62 0 0 1 .138.472.66.66 0 0 1-.229.446.6.6 0 0 1-.46.16.57.57 0 0 1-.422-.22.62.62 0 0 1-.137-.472m-.028 1.147 1.076.075-.36 3.627-1.076-.075zm5.6-.761a.66.66 0 0 1 .228-.447.6.6 0 0 1 .46-.16.57.57 0 0 1 .423.221.62.62 0 0 1 .137.472.66.66 0 0 1-.229.446.6.6 0 0 1-.46.16.57.57 0 0 1-.422-.22.62.62 0 0 1-.137-.472m-.028 1.147 1.076.075-.36 3.627-1.076-.075zm2.264 1.961a.9.9 0 0 0 .031.344.8.8 0 0 0 .155.296q.106.131.253.217a.799.799 0 0 0 .678.047.98.98 0 0 0 .507-.45.94.94 0 0 0 .067-.68.89.89 0 0 0-.411-.513.803.803 0 0 0-.678-.047 1 1 0 0 0-.292.18.919.919 0 0 0-.31.606m2.56 1.717q-.104 1.03-.654 1.529-.552.5-1.57.429a4 4 0 0 1-.908-.172 2 2 0 0 1-.79-.479l.687-.885q.23.234.493.38a1.4 1.4 0 0 0 .594.169q.495.034.753-.199a.93.93 0 0 0 .296-.622l.035-.351-.014-.001a1.07 1.07 0 0 1-.499.337 1.4 1.4 0 0 1-.531.072 1.7 1.7 0 0 1-.69-.186 1.5 1.5 0 0 1-.503-.426 1.7 1.7 0 0 1-.288-.617 2.2 2.2 0 0 1-.047-.762q.035-.359.18-.694a2 2 0 0 1 .376-.583q.23-.248.541-.387.31-.14.683-.114a1.56 1.56 0 0 1 .741.239q.142.093.241.2.097.11.152.21l.014.001.048-.477.99.068zm1.53-1.412q-.042.411.16.68.2.27.609.298.41.029.66-.21.252-.238.292-.648t-.16-.68-.609-.298-.66.21q-.252.239-.292.648m-1.076-.074q.043-.433.228-.773.186-.34.472-.573.287-.231.655-.341t.771-.082q.4.028.743.187t.579.427q.237.268.352.63.117.36.073.793a2 2 0 0 1-.228.773 1.9 1.9 0 0 1-.472.573 1.9 1.9 0 0 1-.656.341 2.2 2.2 0 0 1-.77.082 2.1 2.1 0 0 1-.743-.187 1.7 1.7 0 0 1-.579-.427 1.75 1.75 0 0 1-.353-.629 1.95 1.95 0 0 1-.072-.794M108.175 99.741l-.994-1.767 1.27.088.519 1.028.693-.944 1.198.083-1.301 1.608 1.148 2.034-1.269-.088-.641-1.262-.937 1.152-1.256-.087z" clip-rule="evenodd"/><path fill="#fff" d="M100.553 92.359a.685.685 0 0 0 .751-.616.69.69 0 0 0-.605-.766.685.685 0 0 0-.75.616c-.041.382.229.725.604.766M99.692 100.521a.686.686 0 0 0 .751-.616.69.69 0 0 0-.605-.766.685.685 0 0 0-.751.616c-.04.382.23.725.605.766"/><path fill="#CD5F06" d="M143.238 124.138c-6.173-3.381-12.65-.931-13.824-.471 3.329 1.391 6.669 2.794 9.998 4.186l4.875 5.934c.203-.391.406-.782.61-1.185a308 308 0 0 1 2.076 3.129c.339-2.462.688-4.934 1.027-7.395-.948-1.277-2.483-2.944-4.774-4.198zM124.631 101.692c-.316-2.012 2.595 8.591 3.43 13.904l2.178 19.953s2.076 6.049 0 13.053c-2.076 7.003-7.594 5.842-7.594 5.842.101-.851 5.405-3.818 3.746-17.515-1.772-14.755-1.557-33.96-1.772-35.237z"/><path fill="#370C5D" d="M103.729 155.503s-16.33-5.198-21.215-18.251c0 0 1.67 10.822 6.342 15.813 2.708.425 9.569 1.909 14.873 2.438"/><path fill="#CD5F06" d="M78.453 101.381c-1.14 2.231-1.88 4.459-2.398 5.195l4.556 20.079s-1.842-22.618-2.158-25.274"/><path fill="#E69A7C" d="M92.548 127.567c-2.776-.782-5-1.552-6.546-2.104-2.155-.782-3.058-1.196-4.457-1.093-1.738.127-2.9.943-4.65 2.185-2.087 1.472-3.396 3.531-6.06 7.625-.134.207-.428.667-.27 1.081.158.437.722.598.982.644-.271.724-.08 1.472.395 1.805.338.242.733.207.88.184-.237.575-.124.828-.056.932.316.483 1.478.379 2.922-.299a11 11 0 0 0 1.919-1.265c1.06-.874 1.32-1.426 2.166-1.898.497-.287 1.31-.621 2.54-.586.767.563 4.22 2.955 8.52 2.07a10.15 10.15 0 0 0 3.678-1.599c1.5.299 3.995.794 7.098 1.449a444 444 0 0 1 8.994 1.99c26.09 5.98 30.209 5.256 32.985 2.967.26-.207 3.837-3.232 3.352-6.452 0-.057-.023-.08-.034-.161-.644-3.197-2.9-5.278-4.029-6.279-1.67-1.506-3.171-2.242-4.886-3.082-1.467-.724-3.995-1.932-6.974-2.07-.688-.034-1.478 0-1.569 0-2.121.069-3.667.403-4.107.483a471 471 0 0 1-11.973 1.737c-6.952.586-13.88 1.161-20.832 1.748z"/><mask id="c" width="67" height="13" x="81" y="131" maskUnits="userSpaceOnUse" style="mask-type:luminance"><path fill="#fff" d="M147.045 131.816H81.594v11.501h65.451z"/></mask><g mask="url(#c)"><path fill="#C67458" d="M81.594 134.631c.778.575 4.119 3.392 8.463 2.484 1.693 0 3.668-1.127 4.514-1.725 1.49.299 3.386.529 6.545 1.207 0 0 4.706 1.012 9.107 2.047 8.655 2.036 26.982 6.843 32.24 3.853.192-.115.632-.38 1.14-.782.553-.437 3.972-3.174 3.385-6.647 0-.069-.022-.127-.034-.161 0 0-.079-.391-.304-.966-.215-.518-.869-2.151-1.298-2.116-.564 0 .079 3.519-1.354 5.474-1.817 2.495-6.353 1.909-8.283 1.644-15.934-2.219-25.594-4.887-33.786-4.577-6.365.242-8.103.449-8.103.449-2.776.345-4.604.782-7.459.609a23 23 0 0 1-4.762-.782z"/></g><path fill="#E69A7C" d="M116.52 55.739c-3.329 0-6.139-2.76-6.139-6.153a6.123 6.123 0 0 1 6.139-6.152c3.43 0 6.139 2.76 6.139 6.152a6.124 6.124 0 0 1-6.139 6.153M113.519 61.938l1.264 13.351-10.427 5.06-6.601-2.863-.237-13.904 15.99-1.645z"/><path fill="#CD5F06" d="M107.357 78.754s10.007-9.087 14.371-4.265l1.941 1.73s-12.742 11.384-13 14.027c0 0-1.07-10.804-4.14-9.81l.833-1.687zM98.042 77.967s-3.199.137-3.043 7.496l-1.991-5.98s3.859-8.453 5.034-1.512z"/><path fill="#fff" d="M98.162 76.543s-4.056.174-3.858 9.504l-2.525-7.582s4.893-10.718 6.383-1.917z"/><path fill="#fff" d="M99.177 88.556s-1.343-12.817-3.652-9.776c0 0 .607-6.069 2.051-4.33s1.6 14.106 1.6 14.106"/><path stroke="#CD5F06" stroke-linecap="round" stroke-width=".507" d="M100.527 84.895c-4.343 3.763-2.907 14.708-2.907 14.708"/><path fill="#C67458" d="M113.811 65.5c-2.708 5.301-7.075 8.809-11.961 8.809-1.558 0-3.013-.322-4.368-.955V62.843l16.013-1.484z"/><path fill="#E69A7C" d="M101.848 70.39c-6.202.487-11.909-6.355-14.659-20.805 0-11.465 6.557-20.804 14.659-20.804s14.659 9.339 14.659 20.804c0 11.466-6.556 20.804-14.659 20.804"/><path fill="#E7A484" d="M96.213 60.022s2.927 1.64 5.165-1.004Z"/><path stroke="#000" stroke-miterlimit="10" stroke-width="1.267" d="M96.213 60.022s2.927 1.64 5.165-1.004"/><path fill="#000" d="M118.766 35.712c.339-1.69-.361-2.668-1.106-3.14-.248-.54-.508-1.069-.812-1.598-.136-1.552-.802-3.415-2.776-3.553l-.113-.115c-.192-.886-1.242-2.37-4.04-2.496-.057-.023-.102-.046-.158-.069-.237-.08-.474-.138-.711-.207-1.049-1.196-3.476-2.69-6.398-1.012-.384 0-.756.012-1.129.035-1.568-.403-3.983-.54-5.134 1.035-.181.057-.361.115-.53.184-2.088-.08-6.659.034-6.659 3.668-.835.31-2.336 1.242-2.313 2.565-.734.632-1.467 1.265-1.998 1.702-.733.632-1.14 1.483-1.038 2.438.068.678.395 1.23.79 1.679.09.977.463 2.116 1.106 2.955-.801 3.244 1.636 9.258 1.636 9.258-.09-1.564.046-3.024.26-4.335l1.32-4.566c.226-.552.395-.862.395-.862 7.177.632 9.671-1.91 14.873-3.29.328-.08.632-.138.926-.172.62 1.104 1.726 2.541 2.945 2.541.688 0 1.298.3 1.794.679.429 1 .576 1.84.576 1.84l.835 9.131c.101.633.621 1.173 1.253 1.173.519 0 1.038-.425 1.252-1.058.248-1.196.7-3.266 1.083-4.588.226-.391.418-.725.587-1.035.903.333 2.268.552 2.393-.978.18 0 .293.023.293.023 1.264-1.506 1.422-4.577.587-7.82z"/><path fill="#000" d="M103.204 51.184c-.62 0-1.14-.53-1.14-1.173 0-.644.52-1.173 1.14-1.173.621 0 1.14.529 1.14 1.173s-.519 1.173-1.14 1.173M93.57 51.407c-.621 0-1.14-.53-1.14-1.173 0-.644.519-1.174 1.14-1.174s1.14.53 1.14 1.174-.52 1.173-1.14 1.173"/><path stroke="#000" stroke-miterlimit="10" stroke-width="1.267" d="M96.771 51.334s-5.214 5.11.94 5.11"/><path fill="#000" d="M106.356 48.785a4.35 4.35 0 0 0-2.291-2.231c-.519-.207-1.139-.426-1.67-.207-.519.207-1.038.529-1.252 1.058l.101.103h1.456c.417 0 .835-.103 1.252-.103.836.322 1.659.85 2.393 1.38zM90.531 49.045c.52-.632 1.354-1.276 2.291-.954.52.207 1.038.322 1.557.322l.102-.104c-.418-1.702-2.494-1.587-3.43-.425-.317.322-.52.747-.52 1.173z"/><path fill="#084589" d="M123.176 48.64c0 4.74-1.834 8.581-5.03 8.581s-6.544-3.841-6.544-8.58 3.348-8.58 6.544-8.58 5.03 3.841 5.03 8.58"/><ellipse cx="118.26" cy="48.641" fill="#0770E4" rx="4.914" ry="8.58"/><path fill="#0770E4" d="M91.464 24.847a1.267 1.267 0 1 0 .63 2.455zm3.79-1.3-.21-1.25zm24.963 16.786c-.715-3.555-1.788-8.982-5.342-13.048-3.661-4.187-9.719-6.7-19.832-4.989l.423 2.5c9.486-1.605 14.564.799 17.5 4.158 3.044 3.482 4.032 8.23 4.765 11.879zM95.043 22.296c-.617.105-1.103.4-1.473.697-.358.286-.677.633-.921.895-.573.615-.866.877-1.185.96l.63 2.454c1.163-.298 1.946-1.188 2.41-1.686.274-.295.464-.495.65-.644.174-.14.268-.169.312-.176z"/><path fill="#000" d="M92.085 24.56c-3.389-.545-3.962 2.532-3.825 4.14l3.825.733 3.884-3.249c.117-.314-.494-1.08-3.884-1.624"/><path fill="#000" d="M94.907 22.724c-3.019-.475-3.529 2.204-3.406 3.604l3.405.638L99 24.881c.105-.273-1.076-1.683-4.094-2.157"/><path stroke="#0770E4" stroke-width="1.901" d="M115.391 51.51c-1.84 4.565-7.197 13.779-13.905 14.114"/><ellipse cx="101.378" cy="65.623" fill="#0770E4" rx="2.372" ry="1.49"/><path fill="#fff" d="M116.201 71.5s.536-2.24 4.905 2.582l1.94 1.73s-11.427 9.312-11.685 11.955c0 0-1.53-10.293-3.574-9.63z"/><path fill="#fff" d="M99.07 88.328c6.996-6.104 8.82-9.897 10.774-7.234 0 0 1.218-4.515-.899-3.784S99.07 88.328 99.07 88.328"/><path fill="#CDCFD4" d="M65.765 142.934h-48.05l-9.67-41.183c-.204-.632.315-1.38 1.038-1.38h45.759c.519 0 .937.322 1.038.851z"/><path fill="#CDCFD4" d="M110.386 142.936H60.463v-3.186h46.797c1.659 0 3.013 1.38 3.013 3.082v.104h.113"/><path fill="#fff" d="M33.727 117.036c3.385 0 6.139-1 6.139-2.231s-2.743-2.231-6.14-2.231-6.138 1.001-6.138 2.231c0 1.231 2.742 2.231 6.139 2.231"/><path fill="#A0A5B0" d="M63.476 140.059c-.102 0-.316-.103-.316-.207l-8.836-37.571H9.604c-.204 0-.317-.104-.317-.322s.102-.322.316-.322h45.342l9.05 38.1c-.203.104-.316.322-.519.322"/></g></g><defs><clipPath id="a"><path fill="#fff" d="M8 13h140.5v140.5H8z"/></clipPath><clipPath id="b"><path fill="#fff" d="M7.121 20.025h142.256v122.938H7.121z"/></clipPath></defs></svg>